<svg width="28" height="28" viewBox="0 0 28 28" fill="none" xmlns="http://www.w3.org/2000/svg">
<path d="M25.5845 1.96094C22.6747 2.15333 20.0456 2.40341 17.9753 4.70516C18.515 6.32188 19.4064 8.30819 20.5245 9.91327C21.6458 11.523 22.9722 12.6799 24.2766 12.8279C26.2051 11.0201 27.2132 6.67019 25.5845 1.96094ZM10.6203 2.42644C10.5678 2.42753 10.5142 2.43007 10.4597 2.43404C9.53331 2.50223 9.02181 2.8524 8.60991 3.41519C8.198 3.97798 7.92314 4.7833 7.65922 5.67471C7.36227 6.67735 7.31616 7.9566 7.56827 8.98232C7.8159 9.98955 8.30612 10.6888 9.04156 10.8666C9.05184 10.8027 9.06452 10.7284 9.07464 10.6204C9.11948 10.141 9.25041 9.33106 9.88899 8.28445C9.46517 7.87692 9.08673 7.53556 8.898 7.04753C8.78458 6.75435 8.76719 6.41343 8.85206 6.06359C8.93694 5.71381 9.11052 5.34505 9.37788 4.90094L9.37991 4.89766L9.38193 4.89437C9.85049 4.14658 10.8336 3.70842 11.7616 3.37707C12.0566 3.27174 12.3374 3.19102 12.605 3.12266C11.9951 2.71524 11.4097 2.41003 10.6203 2.42644ZM13.0851 3.90311C12.7889 3.96677 12.425 4.06936 12.0559 4.20116C11.2101 4.50309 10.3372 5.02136 10.1249 5.35714C9.88538 5.75581 9.75424 6.05627 9.7024 6.26998C9.65034 6.48463 9.66412 6.60248 9.71416 6.73193C9.81429 6.99087 10.1938 7.34022 10.7583 7.91274L11.0107 8.16868L10.8085 8.46602C10.516 8.89608 10.3278 9.26248 10.203 9.57896C10.5211 9.76247 10.852 9.88946 11.1834 9.95521C11.3142 13.1001 10.1209 12.355 7.32606 13.9805L8.19494 15.7135C9.65181 15.1511 10.5168 14.8266 11.2597 14.1336C11.9155 14.7934 12.728 15.358 13.6744 15.9621C13.6725 16.5942 10.8632 20.3501 10.8038 20.3303C10.8586 20.3939 10.9182 20.4532 10.9821 20.5076C12.5735 21.0046 13.9057 20.9565 15.1323 20.5772C15.1376 20.5611 15.1433 20.545 15.1485 20.529C15.8462 20.285 16.5637 19.9585 17.261 19.5758C18.3869 18.8788 19.4729 17.9737 20.6028 17.0686C20.039 15.8223 18.3301 15.1635 17.2049 14.6653C17.7392 13.5707 17.4999 12.4018 17.3425 11.354C18.3672 11.2451 19.1481 10.9252 19.887 10.5258C19.8603 10.4881 19.8329 10.4512 19.8065 10.4133C19.421 9.85995 19.0634 9.2697 18.7368 8.66705C17.1933 9.32789 15.5086 9.59657 13.8071 8.7138C14.0799 8.21971 14.2229 7.6216 14.2218 6.97913C14.2207 6.33665 14.0755 5.67226 13.8007 5.0522C13.6137 4.63436 13.3714 4.24533 13.0851 3.90311ZM0.845703 4.77527L1.02546 6.63956L3.90202 12.5332L5.08152 11.9576L2.21683 6.08826L0.845703 4.77527ZM6.154 12.4078L3.59703 13.6559L3.76859 14.6674L6.84591 13.1654L6.154 12.4078ZM6.28077 14.4149L5.10127 14.9906L6.0128 16.8582L7.1923 16.2825L6.28077 14.4149V14.4149ZM20.273 18.4581C19.6023 18.9974 18.926 19.5277 18.221 20.0008C19.6674 22.1164 20.8334 24.3716 22.2158 26.3995L24.1747 25.5928C22.7213 23.0317 21.7431 21.0754 20.273 18.4581ZM14.7904 21.5648C13.9553 21.7474 13.0641 21.7952 12.1068 21.6593C11.6931 23.2784 11.141 24.9355 10.6877 26.8021L12.5313 27.071C13.2539 25.3253 14.1069 23.446 14.7904 21.5648Z" fill="#0033FF"/>
</svg>
