<svg width="24" height="24" viewBox="0 0 24 24" fill="none" xmlns="http://www.w3.org/2000/svg">
<path d="M8.317 7.3179L8.254 7.2789C7.638 6.9049 7.08 6.5649 6.598 6.3919C6.3225 6.28595 6.02776 6.23927 5.733 6.2549C5.411 6.2789 5.121 6.3949 4.865 6.5869C4.346 6.9769 4.129 7.5459 4.012 8.1469C3.9 8.7269 3.857 9.4769 3.805 10.3749L3.802 10.4289C3.76997 10.952 3.75263 11.4759 3.75 11.9999C3.75 12.4889 3.77 13.0279 3.802 13.5709L3.805 13.6249C3.857 14.5239 3.9 15.2739 4.012 15.8519C4.129 16.4539 4.346 17.0229 4.865 17.4119C5.121 17.6049 5.411 17.7219 5.733 17.7449C6.042 17.7679 6.333 17.7029 6.598 17.6079C7.08 17.4349 7.638 17.0949 8.254 16.7209L8.317 16.6819C8.674 16.4649 9.024 16.2409 9.339 16.0199C9.696 15.7689 10.079 15.4719 10.459 15.1629L10.507 15.1229C11.137 14.6089 11.685 14.1629 12.065 13.7199C12.487 13.2289 12.75 12.6899 12.75 11.9999C12.75 11.3099 12.487 10.7709 12.065 10.2799C11.685 9.8379 11.137 9.3909 10.507 8.8769L10.459 8.8369C10.079 8.5279 9.696 8.2309 9.339 7.9799C9.024 7.7599 8.674 7.5349 8.317 7.3179Z" fill="black"/>
<path d="M15.817 7.3179L15.754 7.2789C15.138 6.9049 14.581 6.5649 14.098 6.3919C13.8225 6.28595 13.5278 6.23927 13.233 6.2549C12.911 6.2789 12.621 6.3949 12.365 6.5869C11.846 6.9769 11.629 7.5459 11.512 8.1469C11.4 8.7269 11.357 9.4769 11.305 10.3749L11.302 10.4289C11.27 10.952 11.2526 11.4759 11.25 11.9999C11.25 12.4889 11.27 13.0279 11.302 13.5709L11.305 13.6249C11.357 14.5239 11.4 15.2739 11.512 15.8519C11.629 16.4539 11.846 17.0229 12.365 17.4119C12.621 17.6049 12.911 17.7219 13.233 17.7449C13.542 17.7679 13.833 17.7029 14.098 17.6079C14.58 17.4349 15.138 17.0949 15.754 16.7209L15.817 16.6819C16.174 16.4649 16.524 16.2409 16.839 16.0199C17.197 15.7689 17.579 15.4719 17.959 15.1629L18.007 15.1229C18.637 14.6089 19.185 14.1629 19.565 13.7199C19.987 13.2289 20.25 12.6899 20.25 11.9999C20.25 11.3099 19.987 10.7709 19.565 10.2799C19.185 9.8379 18.637 9.3909 18.007 8.8769L17.959 8.8369C17.579 8.5279 17.197 8.2309 16.839 7.9799C16.524 7.7599 16.174 7.5349 15.817 7.3179Z" fill="black"/>
</svg>
