<svg width="24" height="24" viewBox="0 0 24 24" fill="none" xmlns="http://www.w3.org/2000/svg">
<path d="M8.8 6.4C8.72121 6.29495 8.62249 6.20644 8.50949 6.13953C8.39649 6.07262 8.27142 6.02863 8.14142 6.01005C8.01142 5.99148 7.87903 5.9987 7.75182 6.03129C7.62461 6.06388 7.50506 6.12121 7.4 6.2C7.29494 6.2788 7.20643 6.37751 7.13953 6.49051C7.07262 6.60351 7.02862 6.72858 7.01005 6.85858C6.99148 6.98858 6.99869 7.12097 7.03129 7.24819C7.06388 7.3754 7.12121 7.49495 7.2 7.6L10.5 12L7.2 16.4C7.12121 16.5051 7.06388 16.6246 7.03129 16.7518C6.99869 16.879 6.99148 17.0114 7.01005 17.1414C7.02862 17.2714 7.07262 17.3965 7.13953 17.5095C7.20643 17.6225 7.29494 17.7212 7.4 17.8C7.50506 17.8788 7.62461 17.9361 7.75182 17.9687C7.87903 18.0013 8.01142 18.0085 8.14142 17.99C8.27142 17.9714 8.39649 17.9274 8.50949 17.8605C8.62249 17.7936 8.72121 17.7051 8.8 17.6L11.75 13.667L14.7 17.6C14.7788 17.7051 14.8775 17.7936 14.9905 17.8605C15.1035 17.9274 15.2286 17.9714 15.3586 17.99C15.4886 18.0085 15.621 18.0013 15.7482 17.9687C15.8754 17.9361 15.9949 17.8788 16.1 17.8C16.2051 17.7212 16.2936 17.6225 16.3605 17.5095C16.4274 17.3965 16.4714 17.2714 16.49 17.1414C16.5085 17.0114 16.5013 16.879 16.4687 16.7518C16.4361 16.6246 16.3788 16.5051 16.3 16.4L13 12L16.3 7.6C16.4591 7.38783 16.5275 7.12113 16.49 6.85858C16.4524 6.59603 16.3122 6.35913 16.1 6.2C15.8878 6.04087 15.6211 5.97255 15.3586 6.01005C15.096 6.04756 14.8591 6.18783 14.7 6.4L11.75 10.333L8.8 6.4Z" fill="black"/>
</svg>
