<svg width="24" height="24" viewBox="0 0 24 24" fill="none" xmlns="http://www.w3.org/2000/svg">
<path d="M8 5.75C7.53587 5.75 7.09075 5.93437 6.76256 6.26256C6.43437 6.59075 6.25 7.03587 6.25 7.5V17.5C6.25 18.466 7.034 19.25 8 19.25H9C9.46413 19.25 9.90925 19.0656 10.2374 18.7374C10.5656 18.4092 10.75 17.9641 10.75 17.5V7.5C10.75 7.03587 10.5656 6.59075 10.2374 6.26256C9.90925 5.93437 9.46413 5.75 9 5.75H8ZM14.5 5.75C14.0359 5.75 13.5908 5.93437 13.2626 6.26256C12.9344 6.59075 12.75 7.03587 12.75 7.5V17.5C12.75 18.466 13.534 19.25 14.5 19.25H15.5C15.9641 19.25 16.4092 19.0656 16.7374 18.7374C17.0656 18.4092 17.25 17.9641 17.25 17.5V7.5C17.25 7.03587 17.0656 6.59075 16.7374 6.26256C16.4092 5.93437 15.9641 5.75 15.5 5.75H14.5Z" fill="black"/>
</svg>
