<svg width="24" height="24" viewBox="0 0 24 24" fill="none" xmlns="http://www.w3.org/2000/svg">
<path d="M12.503 7.00995L12.437 6.96995C11.689 6.51495 11.031 6.11395 10.467 5.91195C10.1561 5.79246 9.8237 5.73899 9.491 5.75495C9.14078 5.78169 8.80602 5.91031 8.528 6.12495C7.949 6.55895 7.699 7.19795 7.562 7.90495C7.429 8.58995 7.378 9.48195 7.315 10.568L7.312 10.624C7.274 11.274 7.25 11.917 7.25 12.5C7.25 13.083 7.274 13.727 7.312 14.377L7.315 14.432C7.378 15.518 7.429 16.41 7.562 17.094C7.699 17.802 7.949 18.44 8.528 18.875C8.814 19.09 9.135 19.218 9.491 19.245C9.833 19.27 10.161 19.198 10.467 19.088C11.031 18.886 11.689 18.485 12.437 18.031L12.503 17.991C12.929 17.731 13.347 17.464 13.72 17.201C14.1768 16.876 14.6221 16.5351 15.055 16.179L15.105 16.138C15.869 15.515 16.517 14.986 16.965 14.466C17.453 13.896 17.75 13.284 17.75 12.5C17.75 11.716 17.453 11.103 16.964 10.534C16.517 10.014 15.869 9.48395 15.106 8.86195L15.056 8.82095C14.602 8.45095 14.146 8.09695 13.72 7.79895C13.3227 7.52289 12.9169 7.25942 12.503 7.00895" fill="black"/>
</svg>
