<svg width="24" height="24" viewBox="0 0 24 24" fill="none" xmlns="http://www.w3.org/2000/svg">
<path d="M11.635 6.58689C11.384 6.39434 11.0824 6.27899 10.767 6.25489C10.458 6.23189 10.167 6.29689 9.902 6.39189C9.42 6.56489 8.862 6.90489 8.246 7.27889L8.183 7.31789C7.826 7.53489 7.476 7.75889 7.161 7.97989C6.804 8.23089 6.421 8.52789 6.041 8.83689L5.993 8.87689C5.363 9.39089 4.815 9.83689 4.435 10.2799C4.013 10.7709 3.75 11.3099 3.75 11.9999C3.75 12.6899 4.013 13.2289 4.435 13.7199C4.815 14.1619 5.363 14.6089 5.993 15.1229L6.041 15.1629C6.421 15.4719 6.804 15.7689 7.161 16.0199C7.476 16.2399 7.826 16.4649 8.183 16.6819L8.246 16.7209C8.862 17.0949 9.42 17.4349 9.902 17.6079C10.166 17.7029 10.458 17.7679 10.767 17.7449C11.089 17.7209 11.379 17.6049 11.635 17.4129C12.154 17.0229 12.371 16.4539 12.488 15.8529C12.6 15.2729 12.643 14.5229 12.695 13.6249L12.698 13.5709C12.73 13.0478 12.7474 12.5239 12.75 11.9999C12.75 11.5109 12.73 10.9719 12.698 10.4289L12.695 10.3749C12.643 9.47589 12.6 8.72589 12.488 8.14789C12.371 7.54589 12.154 6.97589 11.635 6.58689Z" fill="black"/>
<path d="M19.135 6.58689C18.884 6.39434 18.5824 6.27899 18.267 6.25489C17.958 6.23189 17.667 6.29689 17.402 6.39189C16.919 6.56489 16.362 6.90489 15.746 7.27889L15.683 7.31789C15.326 7.53489 14.976 7.75889 14.661 7.97989C14.304 8.23089 13.921 8.52789 13.541 8.83689L13.493 8.87689C12.863 9.39089 12.315 9.83689 11.935 10.2799C11.513 10.7709 11.25 11.3099 11.25 11.9999C11.25 12.6899 11.513 13.2289 11.935 13.7199C12.315 14.1619 12.863 14.6089 13.493 15.1229L13.541 15.1629C13.921 15.4719 14.303 15.7689 14.661 16.0199C14.976 16.2399 15.326 16.4649 15.683 16.6819L15.746 16.7209C16.362 17.0949 16.919 17.4349 17.402 17.6079C17.666 17.7029 17.958 17.7679 18.267 17.7449C18.59 17.7209 18.879 17.6049 19.135 17.4129C19.654 17.0229 19.871 16.4539 19.988 15.8529C20.1 15.2729 20.143 14.5229 20.195 13.6249L20.198 13.5709C20.23 13.0478 20.2474 12.5239 20.25 11.9999C20.25 11.5109 20.23 10.9719 20.198 10.4289L20.195 10.3749C20.143 9.47589 20.1 8.72589 19.988 8.14789C19.871 7.54589 19.654 6.97589 19.135 6.58689Z" fill="black"/>
</svg>
